<svg xmlns="http://www.w3.org/2000/svg" xmlns:xlink="http://www.w3.org/1999/xlink" version="1.1" style="" xml:space="preserve" width="219.151" height="219.151"><rect id="backgroundrect" width="100%" height="100%" x="0" y="0" fill="none" stroke="none"/>
















<g class="currentLayer" style=""><title>Layer 1</title><g id="svg_1" class="" fill="#e7d7f7" fill-opacity="1">
	<path d="M109.576,219.151c60.419,0,109.573-49.156,109.573-109.576C219.149,49.156,169.995,0,109.576,0S0.002,49.156,0.002,109.575   C0.002,169.995,49.157,219.151,109.576,219.151z M109.576,15c52.148,0,94.573,42.426,94.574,94.575   c0,52.149-42.425,94.575-94.574,94.576c-52.148-0.001-94.573-42.427-94.573-94.577C15.003,57.427,57.428,15,109.576,15z" id="svg_2" fill="#e7d7f7" fill-opacity="1"/>
	<path d="M94.861,156.507c2.929,2.928,7.678,2.927,10.606,0c2.93-2.93,2.93-7.678-0.001-10.608l-28.82-28.819l83.457-0.008   c4.142-0.001,7.499-3.358,7.499-7.502c-0.001-4.142-3.358-7.498-7.5-7.498l-83.46,0.008l28.827-28.825   c2.929-2.929,2.929-7.679,0-10.607c-1.465-1.464-3.384-2.197-5.304-2.197c-1.919,0-3.838,0.733-5.303,2.196l-41.629,41.628   c-1.407,1.406-2.197,3.313-2.197,5.303c0.001,1.99,0.791,3.896,2.198,5.305L94.861,156.507z" id="svg_3" fill="#e7d7f7" fill-opacity="1"/>
</g><g id="svg_4">
</g><g id="svg_5">
</g><g id="svg_6">
</g><g id="svg_7">
</g><g id="svg_8">
</g><g id="svg_9">
</g><g id="svg_10">
</g><g id="svg_11">
</g><g id="svg_12">
</g><g id="svg_13">
</g><g id="svg_14">
</g><g id="svg_15">
</g><g id="svg_16">
</g><g id="svg_17">
</g><g id="svg_18">
</g></g></svg>